<svg width="348" height="302" viewBox="0 0 348 302" fill="none" xmlns="http://www.w3.org/2000/svg">
<path d="M174 301.749L0.0375671 0.437164H347.962L174 301.749Z" fill="#6931F6"/>
<path d="M206.697 157.285H140.091C133.931 157.285 129.311 152.28 129.311 146.505V144.58C129.311 129.95 140.861 118.399 155.106 118.399H191.682C205.927 118.399 217.478 130.335 217.478 144.58V146.505C217.478 152.28 212.472 157.285 206.697 157.285ZM155.106 122.634C143.556 122.634 133.931 132.26 133.931 144.195V146.12C133.931 149.585 136.626 152.28 140.091 152.28H206.697C210.162 152.28 212.857 149.585 212.857 146.12V144.195C212.857 132.26 203.232 122.634 191.682 122.634H155.106Z" fill="white" stroke="white" stroke-width="0.5"/>
<path d="M173.588 145.35L155.878 118.785H188.604L173.588 145.35ZM164.733 123.405L173.588 136.495L180.904 123.405H164.733Z" fill="white" stroke="white" stroke-width="0.5"/>
<path d="M173.197 119.941C158.567 119.941 147.017 104.541 147.017 85.6757V75.6654C147.017 74.8954 147.402 73.7404 148.557 73.3554C149.327 72.9704 150.097 72.9704 150.867 72.5854C165.497 66.8102 179.742 66.4252 193.603 71.8154C195.143 72.2004 196.683 72.9704 198.223 73.7404C198.993 74.1254 199.378 74.8954 199.378 75.6654V86.0607C199.378 104.541 187.828 119.941 173.197 119.941ZM151.637 77.2055V86.0607C151.637 102.231 161.262 115.706 173.197 115.706C185.132 115.706 194.758 102.616 194.758 86.0607V77.2055C193.988 76.8205 192.833 76.4355 192.063 76.0505C179.357 71.0453 166.267 71.4303 152.407 76.8205C152.407 76.8205 152.022 77.2055 151.637 77.2055Z" fill="white" stroke="white" stroke-width="0.5"/>
<path d="M152.41 76.8198C152.025 76.8198 152.025 76.8198 151.64 76.8198L126.999 67.5795C126.229 67.1945 125.459 66.4245 125.459 65.2695C125.459 64.1145 126.229 63.3444 126.999 62.9594L172.815 45.634C173.2 45.634 173.97 45.634 174.355 45.634L220.171 62.9594C220.941 63.3444 221.711 64.4995 221.711 65.2695C221.711 66.4245 220.941 67.1945 220.171 67.5795L197.456 76.0497C197.071 76.0497 196.301 76.4348 195.916 76.0497C182.44 71.0446 167.81 71.4296 153.18 76.8198C153.18 76.8198 152.795 76.8198 152.41 76.8198ZM134.314 65.2695L152.41 72.1997C167.425 66.8095 182.44 66.4245 196.686 71.4296L212.856 65.2695L173.585 50.2541L134.314 65.2695Z" fill="white" stroke="white" stroke-width="0.5"/>
</svg>
