<svg width="348" height="302" viewBox="0 0 348 302" fill="none" xmlns="http://www.w3.org/2000/svg">
<path d="M174 0L347.962 301.311H0.0380249L174 0Z" fill="#F9C36E"/>
<path d="M229.627 179.512C226.932 177.202 223.082 176.432 219.617 177.972C216.152 179.512 214.227 182.977 214.227 186.442V204.923C213.457 204.538 213.072 204.538 212.302 204.538C209.607 204.153 206.527 205.308 204.602 207.233L181.886 229.948C178.806 233.028 176.881 237.263 176.881 241.884V256.129C176.881 257.669 178.421 259.209 179.961 259.209C181.501 259.209 183.041 257.669 183.041 256.129V241.884C183.041 239.189 184.196 236.108 186.121 234.183L208.837 211.468C209.992 210.313 211.917 210.313 213.457 211.468C214.612 212.623 214.612 214.548 213.457 215.703L200.366 228.793C199.211 229.948 199.211 231.873 200.366 233.028C201.521 234.183 203.446 234.183 204.602 233.028L217.692 219.938C219.617 218.013 220.387 215.318 220.387 213.008C220.387 213.008 220.387 213.008 220.387 212.623V186.442C220.387 184.902 221.542 183.362 223.082 183.362C223.852 183.362 225.007 183.362 225.777 184.132C226.547 184.902 226.932 185.672 226.932 186.442V221.093C226.932 224.558 225.392 228.023 223.082 230.333L204.602 248.814C204.217 249.199 203.831 250.354 203.831 251.124V256.899C203.831 258.439 205.372 259.979 206.912 259.979C208.452 259.979 209.992 258.439 209.992 256.899V252.664L227.317 235.338C230.782 231.873 233.092 226.868 233.092 221.863V187.212C233.092 183.747 231.937 181.052 229.627 179.512Z" fill="white"/>
<path d="M136.835 252.283V256.518C136.835 258.058 138.375 259.598 139.915 259.598C141.455 259.598 142.995 258.058 142.995 256.518V250.743C142.995 249.973 142.61 249.202 142.225 248.432L123.745 229.952C121.435 227.642 119.895 224.177 119.895 220.712V186.061C119.895 185.291 120.28 184.136 121.05 183.751C121.82 182.981 122.59 182.981 123.745 182.981C125.285 183.366 126.44 184.906 126.44 186.446V213.012C126.055 215.707 127.21 218.402 129.135 220.327L142.225 233.417C142.995 234.187 144.15 234.572 145.305 234.187C146.46 233.802 147.23 233.032 147.615 231.877C148 230.722 147.615 229.567 146.845 228.797L133.755 215.707C132.6 214.552 132.6 212.627 133.755 211.472C134.91 210.317 136.835 210.317 137.99 211.472L160.705 234.187C162.631 236.112 163.786 238.807 163.786 241.887V256.133C163.786 257.673 165.326 259.213 166.866 259.213C168.406 259.213 169.946 257.673 169.946 256.133V241.887C169.946 237.267 168.021 233.032 164.941 229.952L142.225 207.237C140.3 205.311 137.605 204.156 134.525 204.541C133.755 204.541 132.985 204.926 132.6 204.926V186.446C132.6 181.441 128.365 177.206 123.36 177.206C118.354 177.206 113.734 181.441 113.734 186.446V221.097C113.734 226.102 115.659 231.107 119.51 234.572L136.835 252.283Z" fill="white"/>
<path d="M173.411 174.125C167.636 172.97 167.636 170.66 167.636 169.89C167.636 166.81 170.331 165.655 172.641 165.655C174.566 165.655 176.491 166.81 177.261 168.735C177.646 169.89 178.416 170.66 179.956 170.66C181.111 170.66 182.266 170.275 183.036 169.505C183.806 168.735 183.806 167.195 183.036 166.425C181.881 163.345 179.186 160.65 175.721 159.88V157.185C175.721 155.645 174.181 154.105 172.641 154.105C170.716 154.105 169.561 155.645 169.561 157.185V159.88C164.556 161.035 161.476 164.885 161.476 169.89C161.476 172.97 163.016 177.976 171.871 179.901C177.646 181.056 177.646 183.366 177.646 184.136C177.646 187.216 174.951 188.371 172.641 188.371C170.716 188.371 168.791 187.216 168.021 185.291C167.636 184.136 166.481 183.366 165.711 183.366C164.556 183.366 163.401 183.751 162.631 184.521C161.861 185.291 161.861 186.446 162.246 187.601C163.401 190.681 166.481 192.991 169.561 193.761V196.456C169.561 197.996 171.101 199.536 172.641 199.536C174.181 199.536 175.721 197.996 175.721 196.456V194.146C180.726 192.991 183.806 189.141 183.806 184.136C183.806 181.441 182.651 176.436 173.411 174.125Z" fill="white"/>
<path d="M208.447 176.435C208.447 161.804 199.592 148.714 186.116 143.324C172.641 137.934 157.241 140.629 146.845 151.024C136.45 161.419 133.37 176.82 139.145 190.295C144.92 203.77 158.011 212.626 172.256 212.626C192.276 212.241 208.447 196.07 208.447 176.435ZM172.641 206.08C160.706 206.08 149.54 198.765 144.92 187.6C140.3 176.435 142.995 163.729 151.466 154.874C159.936 146.019 173.026 143.709 184.191 148.329C195.357 152.949 202.672 163.729 202.672 176.05C202.287 192.605 189.196 206.08 172.641 206.08Z" fill="white"/>
</svg>
