<svg width="348" height="302" viewBox="0 0 348 302" fill="none" xmlns="http://www.w3.org/2000/svg">
<path d="M174 301.749L0.0375671 0.437164H347.962L174 301.749Z" fill="#FF7467"/>
<path d="M202.262 47.3076C187.552 47.3076 178.262 56.4904 174.004 62.2297C169.745 56.8731 160.455 47.3076 146.132 47.3076C126.39 47.3076 112.067 62.9949 112.067 84.0389C112.067 85.952 112.842 127.657 172.842 154.058C173.229 154.058 173.617 154.441 174.004 154.441C174.391 154.441 174.778 154.441 175.165 154.058C235.166 128.04 235.94 85.952 235.94 84.0389C235.94 62.9949 221.617 47.3076 202.262 47.3076ZM145.745 53.0469C162.391 53.0469 170.907 67.969 171.294 68.7342C172.455 70.6473 175.165 70.6473 176.326 68.7342C176.713 67.969 184.842 53.0469 201.875 53.0469C218.133 53.0469 230.133 66.0559 230.133 84.0389C230.133 84.0389 230.133 89.7782 227.037 97.8131H186.778C185.617 97.8131 184.455 98.5784 184.068 99.7262L179.423 112.735L172.842 77.5344C172.455 76.3866 171.681 75.2387 170.133 75.2387C168.584 75.2387 167.81 76.0039 167.036 77.1518L159.294 97.8131H120.584C117.874 90.1608 117.874 84.8041 117.874 84.0389C117.874 66.0559 129.487 53.0469 145.745 53.0469ZM174.004 148.319C143.423 134.544 129.487 116.944 122.906 103.552H161.229C162.391 103.552 163.552 102.787 163.939 101.639L168.584 88.6303L175.165 123.831C175.552 124.979 176.326 126.127 177.875 126.127C177.875 126.127 177.875 126.127 178.262 126.127C179.423 126.127 180.584 125.362 180.971 124.214L188.713 103.552H224.714C218.133 116.944 204.198 134.927 174.004 148.319Z" fill="white" stroke="white" stroke-width="0.5"/>
</svg>
