<svg width="348" height="302" viewBox="0 0 348 302" fill="none" xmlns="http://www.w3.org/2000/svg">
<path d="M174 0L347.962 301.311H0.0380249L174 0Z" fill="#FE59BB"/>
<path d="M231.8 190.512C229.875 188.587 227.18 187.432 224.1 187.432C221.02 187.432 218.325 188.587 216.4 190.512L201.385 205.912C200.615 205.527 199.845 205.142 198.69 204.757C198.69 204.757 198.69 204.757 198.305 204.757C197.92 204.757 197.534 204.757 197.149 204.372H196.764C196.379 204.372 195.994 204.372 195.224 204.372H148.253C144.018 204.372 139.783 205.912 136.318 209.378L113.218 232.863C112.448 233.633 112.062 234.403 112.062 235.173C112.062 235.943 112.448 237.098 113.218 237.483L134.393 259.044C135.163 259.814 135.933 260.199 136.703 260.199C137.473 260.199 138.628 259.814 139.013 259.044L149.408 249.418H184.829C187.909 249.418 190.604 248.263 192.529 246.338L231.8 206.297C236.035 201.677 236.035 194.747 231.8 190.512ZM226.795 201.292L187.524 241.333C186.754 242.103 185.599 242.488 184.829 242.488H147.868C147.098 242.488 145.943 242.873 145.558 243.643L137.088 252.114L120.918 235.558L141.708 214.383C143.633 212.458 145.943 211.688 148.638 211.688H195.609C196.764 211.688 197.92 212.073 198.69 213.228C199.075 213.998 199.46 214.768 199.46 215.538C199.46 216.693 199.075 217.848 198.305 218.618C197.534 219.388 196.379 219.773 195.609 219.773H169.814C167.889 219.773 166.349 221.313 166.349 223.238C166.349 225.163 167.889 226.703 169.814 226.703H195.609C198.69 226.703 201.385 225.548 203.31 223.623C205.235 221.698 206.39 218.618 206.39 215.923C206.39 214.383 206.005 212.843 205.62 211.688L221.02 195.902C222.56 194.362 225.255 194.362 226.795 195.902C228.335 197.057 228.335 199.752 226.795 201.292Z" fill="white"/>
<path d="M170.973 196.669C171.358 196.669 171.358 196.669 171.358 196.669C171.743 196.669 171.743 196.669 172.128 196.669C181.753 196.669 190.609 192.819 197.539 185.889C204.469 178.959 208.319 169.334 207.934 159.324C207.934 157.398 206.394 155.858 204.469 155.858C196.769 155.858 189.454 157.783 183.678 162.404C182.138 155.088 178.673 148.543 173.283 143.153C172.128 141.998 169.818 141.998 168.663 143.153C161.733 150.083 157.883 159.324 157.883 169.334C157.883 179.344 161.733 188.584 168.663 195.514C169.048 196.284 170.203 196.669 170.973 196.669ZM192.534 180.884C188.684 184.734 183.678 187.429 178.673 188.584C182.138 183.194 184.063 177.034 184.063 170.489C188.684 166.254 194.459 163.559 200.619 162.789C200.234 170.104 197.154 176.264 192.534 180.884ZM170.973 150.853C175.208 156.243 177.518 162.404 177.518 169.334C177.518 176.264 175.208 182.809 170.973 187.814C166.738 182.424 164.428 176.264 164.428 169.334C164.428 162.404 166.738 155.858 170.973 150.853Z" fill="white"/>
</svg>
