<svg width="1076" height="1111" viewBox="0 0 1076 1111" fill="none" xmlns="http://www.w3.org/2000/svg">
<g filter="url(#filter0_d_316_8216)">
<path d="M629.756 859.791L739.37 529.584L970.53 789.615L629.756 859.791Z" fill="#FF7467"/>
</g>
<path d="M838.697 711.863C828.923 700.869 815.888 700.026 808.769 700.657C809.944 693.916 810.92 680.617 801.404 669.912C788.287 655.158 767.047 654.876 751.319 668.857C749.89 670.128 719.234 698.416 739.367 760.8C739.625 761.089 739.596 761.633 739.853 761.922C740.11 762.211 740.367 762.5 740.91 762.536C800.22 790.092 832.19 762.708 833.62 761.437C849.348 747.455 851.556 726.328 838.697 711.863ZM796.858 673.436C807.917 685.877 802.422 702.156 802.108 702.953C801.449 705.092 803.25 707.118 805.451 706.715C806.28 706.495 822.834 702.657 834.15 715.386C844.952 727.538 843.202 745.149 829.762 757.097C829.762 757.097 825.473 760.91 817.41 763.934L790.662 733.846C789.891 732.978 788.547 732.618 787.432 733.092L774.623 738.263L796.559 709.958C797.16 708.906 797.504 707.564 796.475 706.407C795.446 705.25 794.36 705.18 792.988 705.364L772.402 713.305L746.683 684.374C750.602 677.264 754.605 673.705 755.177 673.197C768.617 661.249 786.056 661.285 796.858 673.436ZM744.428 757.854C734.405 725.847 738.3 703.738 743.937 689.923L769.398 718.565C770.17 719.432 771.513 719.792 772.629 719.319L785.437 714.147L763.501 742.453C762.901 743.505 762.557 744.846 763.586 746.003C763.586 746.003 763.586 746.003 763.843 746.293C764.615 747.161 765.958 747.52 767.073 747.047L787.659 739.106L811.578 766.012C797.197 769.991 774.498 771.523 744.428 757.854Z" fill="white" stroke="white" stroke-width="0.5"/>
<g filter="url(#filter1_d_316_8216)">
<path d="M691.744 551.595L582.13 881.801L350.97 621.77L691.744 551.595Z" fill="#F9C36E"/>
</g>
<path d="M594.539 712.437C594.475 708.888 592.492 705.499 589.039 703.933C585.586 702.366 581.717 703.23 579.127 705.532L565.316 717.81C565.092 716.979 564.836 716.691 564.324 716.116C562.821 713.846 559.912 712.311 557.194 712.151L525.125 710.266C520.776 710.011 516.332 711.386 512.879 714.455L502.233 723.92C501.082 724.943 500.954 727.117 501.977 728.268C503 729.419 505.174 729.547 506.325 728.524L516.972 719.059C518.986 717.269 522.056 716.086 524.773 716.245L556.843 718.13C558.473 718.226 559.752 719.665 559.912 721.583C559.816 723.214 558.378 724.493 556.747 724.397L538.266 723.311C536.636 723.215 535.197 724.494 535.101 726.125C535.005 727.755 536.284 729.194 537.915 729.29L556.396 730.376C559.113 730.536 561.639 729.321 563.366 727.786C563.366 727.786 563.366 727.786 563.653 727.53L583.22 710.136C584.371 709.113 586.29 708.953 587.313 710.104C587.824 710.679 588.592 711.542 588.528 712.629C588.464 713.717 588.144 714.516 587.569 715.027L561.672 738.049C559.082 740.352 555.469 741.503 552.208 741.311L526.117 739.778C525.574 739.746 524.455 740.225 523.879 740.737L519.563 744.574C518.412 745.597 518.284 747.771 519.307 748.922C520.331 750.073 522.505 750.201 523.656 749.178L526.821 746.364L551.281 747.802C556.173 748.089 561.448 746.49 565.189 743.165L591.086 720.143C593.676 717.841 594.923 715.187 594.539 712.437Z" fill="white"/>
<path d="M478.501 691.435L475.336 694.249C474.185 695.272 474.057 697.446 475.08 698.597C476.103 699.748 478.277 699.876 479.428 698.852L483.745 695.015C484.32 694.504 484.64 693.705 484.96 692.905L486.493 666.815C486.685 663.554 488.251 660.1 490.841 657.798L516.738 634.776C517.314 634.265 518.433 633.785 519.232 634.105C520.319 634.169 520.831 634.744 521.598 635.607C522.334 637.014 521.95 638.901 520.799 639.924L500.945 657.574C498.675 659.077 497.428 661.731 497.268 664.448L496.182 682.929C496.118 684.016 496.597 685.135 497.653 685.743C498.708 686.35 499.795 686.414 500.914 685.934C502.033 685.455 502.64 684.399 502.704 683.312L503.79 664.832C503.886 663.201 505.325 661.922 506.956 662.018C508.586 662.114 509.865 663.553 509.77 665.183L507.885 697.252C507.725 699.97 506.478 702.624 504.176 704.67L493.529 714.135C492.378 715.158 492.251 717.332 493.274 718.483C494.297 719.634 496.471 719.762 497.622 718.739L508.269 709.274C511.722 706.205 513.608 701.952 513.864 697.604L515.749 665.535C515.908 662.817 514.981 660.035 512.647 657.989C512.135 657.414 511.336 657.094 511.08 656.806L524.892 644.528C528.633 641.202 528.984 635.223 525.659 631.483C522.333 627.742 516.098 627.103 512.358 630.428L486.46 653.45C482.72 656.776 480.258 661.54 480.226 666.719L478.501 691.435Z" fill="white"/>
<path d="M561.215 666.844C558.241 661.76 559.968 660.225 560.543 659.714C562.845 657.667 565.499 658.914 567.034 660.641C568.313 662.079 568.729 664.286 567.801 666.14C567.194 667.195 567.13 668.282 568.153 669.433C568.921 670.297 569.976 670.904 571.063 670.968C572.15 671.032 573.301 670.009 573.365 668.921C574.899 666.012 575.123 662.207 573.396 659.106L575.411 657.315C576.562 656.292 576.689 654.118 575.666 652.967C574.387 651.528 572.469 651.688 571.318 652.711L569.304 654.502C565.115 651.528 560.191 651.784 556.45 655.11C554.148 657.156 551.431 661.633 555.876 669.53C558.849 674.613 557.123 676.148 556.547 676.66C554.245 678.706 551.592 677.459 550.057 675.733C548.778 674.294 548.362 672.088 549.289 670.233C549.897 669.178 549.705 667.803 549.193 667.228C548.426 666.365 547.37 665.757 546.283 665.693C545.196 665.63 544.333 666.397 543.726 667.452C542.191 670.362 542.511 674.198 543.982 677.012L541.968 678.803C540.817 679.826 540.689 682 541.712 683.151C542.735 684.302 544.909 684.43 546.06 683.407L547.787 681.872C551.976 684.845 556.899 684.589 560.64 681.264C562.654 679.473 565.628 675.284 561.215 666.844Z" fill="white"/>
<path d="M582.767 694.563C593.701 684.842 597.601 669.527 592.676 655.875C587.752 642.222 575.506 632.503 560.83 631.64C546.154 630.778 532.598 638.708 526.364 651.977C520.13 665.246 522.209 680.913 531.673 691.56C545.262 706.267 568.091 707.608 582.767 694.563ZM536.821 687.499C528.891 678.579 526.94 665.374 532.215 654.503C537.49 643.631 548.776 637.204 561.022 637.651C573.268 638.098 583.692 646.347 587.657 657.761C591.622 669.176 588.425 681.805 579.217 689.991C566.588 700.702 547.82 699.872 536.821 687.499Z" fill="white"/>
<g filter="url(#filter2_d_316_8216)">
<path d="M389.803 564.675L499.417 234.469L730.577 494.5L389.803 564.675Z" fill="#6931F6"/>
</g>
<path d="M519.496 493.131L475.242 443.351C471.15 438.747 471.821 431.968 476.137 428.131L477.576 426.852C488.51 417.132 504.817 418.09 514.281 428.737L538.582 456.073C548.047 466.72 546.8 483.282 536.154 492.746L534.715 494.025C530.399 497.862 523.333 497.447 519.496 493.131ZM511.116 431.551C503.442 422.918 489.853 422.12 480.933 430.049L479.494 431.328C476.905 433.631 476.681 437.435 478.983 440.025L523.236 489.806C525.539 492.395 529.344 492.619 531.933 490.317L533.372 489.038C542.292 481.108 543.091 467.519 535.417 458.887L511.116 431.551Z" fill="white" stroke="white" stroke-width="0.5"/>
<path d="M506.418 460.456L514.506 429.57L536.249 454.028L506.418 460.456ZM516.936 439.258L513.036 454.573L527.68 451.343L516.936 439.258Z" fill="white" stroke="white" stroke-width="0.5"/>
<path d="M525.148 443.283C515.428 432.348 519.264 413.484 533.363 400.95L540.845 394.299C541.42 393.787 542.539 393.308 543.595 393.915C544.394 394.235 544.906 394.81 545.705 395.13C559.741 402.227 569.494 412.618 574.674 426.558C575.41 427.965 575.857 429.628 576.305 431.29C576.529 432.122 576.209 432.921 575.634 433.433L567.864 440.339C554.053 452.618 534.869 454.217 525.148 443.283ZM542.764 398.775L536.145 404.658C524.06 415.402 520.384 431.549 528.314 440.469C536.243 449.389 552.422 447.886 564.795 436.886L571.413 431.003C571.189 430.171 570.71 429.052 570.486 428.221C565.785 415.4 556.8 405.872 543.563 399.095C543.563 399.095 543.019 399.063 542.764 398.775Z" fill="white" stroke="white" stroke-width="0.5"/>
<path d="M543.565 399.096C543.309 398.809 543.309 398.809 543.054 398.521L533.588 373.966C533.365 373.135 533.428 372.047 534.292 371.28C535.155 370.513 536.242 370.577 537.041 370.896L580.43 393.627C580.686 393.915 581.198 394.49 581.453 394.778L598.945 440.531C599.169 441.362 598.817 442.705 598.242 443.217C597.378 443.984 596.291 443.92 595.492 443.601L574.069 432.251C573.813 431.963 573.014 431.644 573.046 431.1C567.834 417.704 557.826 407.025 544.077 399.672C544.077 399.672 543.821 399.384 543.565 399.096ZM540.175 377.898L547.018 396.027C561.023 403.668 571.287 414.634 577.011 428.606L592.358 436.599L577.489 397.272L540.175 377.898Z" fill="white" stroke="white" stroke-width="0.5"/>
<path d="M516.133 406.483C515.366 405.62 515.461 403.989 516.325 403.222L537.33 384.548C538.193 383.781 539.824 383.877 540.591 384.74C541.359 385.603 541.263 387.234 540.4 388.001L519.394 406.675C518.531 407.442 516.9 407.346 516.133 406.483Z" fill="white" stroke="white" stroke-width="0.5"/>
<g filter="url(#filter3_d_316_8216)">
<path d="M436.22 259.121L326.607 589.328L95.4464 329.296L436.22 259.121Z" fill="#FE59BB"/>
</g>
<path d="M332.238 428.896C332.398 426.178 331.47 423.396 329.424 421.094C327.378 418.792 324.724 417.545 322.006 417.386L300.52 416.396C300.296 415.564 300.072 414.733 299.593 413.614C299.593 413.614 299.593 413.614 299.337 413.326C299.081 413.038 298.825 412.751 298.857 412.207L298.601 411.919C298.346 411.632 298.09 411.344 297.578 410.768L266.371 375.663C263.557 372.498 259.592 370.356 254.7 370.068L221.8 368.407C220.712 368.343 219.881 368.567 219.306 369.079C218.73 369.591 218.123 370.646 218.347 371.477L216.302 401.628C216.238 402.715 216.462 403.546 216.973 404.122C217.485 404.697 218.54 405.305 219.371 405.081L233.472 406.455L257.005 432.928C259.051 435.23 261.705 436.477 264.423 436.636L320.44 439.383C326.707 439.479 331.887 434.875 332.238 428.896ZM320.856 432.317L264.838 429.57C263.751 429.506 262.696 428.899 262.185 428.323L237.628 400.7C237.116 400.124 236.061 399.517 235.23 399.741L223.272 399.038L224.901 375.953L254.541 377.422C257.258 377.582 259.369 378.797 261.159 380.811L292.367 415.916C293.134 416.78 293.614 417.899 293.262 419.242C292.942 420.041 292.623 420.84 292.047 421.352C291.184 422.119 290.065 422.599 288.978 422.535C287.891 422.471 286.836 421.864 286.324 421.288L269.185 402.009C267.906 400.57 265.732 400.443 264.294 401.722C262.855 403.001 262.727 405.175 264.006 406.613L281.145 425.893C283.191 428.195 285.845 429.441 288.563 429.601C291.28 429.761 294.35 428.578 296.364 426.787C297.515 425.764 298.41 424.453 299.017 423.398L321.047 424.42C323.221 424.548 325.012 426.562 324.884 428.736C325.044 430.655 323.03 432.445 320.856 432.317Z" fill="white"/>
<path d="M287.223 387.526C287.479 387.814 287.479 387.814 287.479 387.814C287.734 388.101 287.734 388.101 287.99 388.389C294.385 395.583 303.146 399.643 312.93 400.218C322.714 400.793 332.465 397.276 339.691 390.337C341.13 389.058 341.258 386.884 339.979 385.445C334.863 379.69 328.564 375.502 321.274 374.255C325.718 368.244 328.307 361.306 328.754 353.696C328.85 352.066 327.316 350.339 325.685 350.243C315.901 349.668 306.437 352.93 298.956 359.581C291.474 366.231 287.126 375.248 286.551 385.032C286.232 385.831 286.711 386.95 287.223 387.526ZM313.345 393.152C307.91 392.832 302.57 390.882 298.381 387.909C304.712 386.918 310.595 384.263 315.487 379.915C321.722 380.554 327.573 383.08 332.241 387.172C326.518 391.745 319.868 393.535 313.345 393.152ZM321.465 357.086C320.25 363.832 317.181 369.651 312.001 374.256C306.822 378.86 300.395 381.482 293.841 381.642C295.056 374.896 298.125 369.077 303.304 364.472C308.484 359.868 314.91 357.246 321.465 357.086Z" fill="white"/>
<defs>
<filter id="filter0_d_316_8216" x="605.756" y="529.584" width="388.774" height="378.206" filterUnits="userSpaceOnUse" color-interpolation-filters="sRGB">
<feFlood flood-opacity="0" result="BackgroundImageFix"/>
<feColorMatrix in="SourceAlpha" type="matrix" values="0 0 0 0 0 0 0 0 0 0 0 0 0 0 0 0 0 0 127 0" result="hardAlpha"/>
<feOffset dy="24"/>
<feGaussianBlur stdDeviation="12"/>
<feComposite in2="hardAlpha" operator="out"/>
<feColorMatrix type="matrix" values="0 0 0 0 0.976471 0 0 0 0 0.584314 0 0 0 0 0.584314 0 0 0 1 0"/>
<feBlend mode="normal" in2="BackgroundImageFix" result="effect1_dropShadow_316_8216"/>
<feBlend mode="normal" in="SourceGraphic" in2="effect1_dropShadow_316_8216" result="shape"/>
</filter>
<filter id="filter1_d_316_8216" x="326.97" y="551.595" width="388.774" height="378.206" filterUnits="userSpaceOnUse" color-interpolation-filters="sRGB">
<feFlood flood-opacity="0" result="BackgroundImageFix"/>
<feColorMatrix in="SourceAlpha" type="matrix" values="0 0 0 0 0 0 0 0 0 0 0 0 0 0 0 0 0 0 127 0" result="hardAlpha"/>
<feOffset dy="24"/>
<feGaussianBlur stdDeviation="12"/>
<feComposite in2="hardAlpha" operator="out"/>
<feColorMatrix type="matrix" values="0 0 0 0 1 0 0 0 0 0.886275 0 0 0 0 0.615686 0 0 0 1 0"/>
<feBlend mode="normal" in2="BackgroundImageFix" result="effect1_dropShadow_316_8216"/>
<feBlend mode="normal" in="SourceGraphic" in2="effect1_dropShadow_316_8216" result="shape"/>
</filter>
<filter id="filter2_d_316_8216" x="365.803" y="222.469" width="388.774" height="378.206" filterUnits="userSpaceOnUse" color-interpolation-filters="sRGB">
<feFlood flood-opacity="0" result="BackgroundImageFix"/>
<feColorMatrix in="SourceAlpha" type="matrix" values="0 0 0 0 0 0 0 0 0 0 0 0 0 0 0 0 0 0 127 0" result="hardAlpha"/>
<feOffset dy="12"/>
<feGaussianBlur stdDeviation="12"/>
<feComposite in2="hardAlpha" operator="out"/>
<feColorMatrix type="matrix" values="0 0 0 0 0.333333 0 0 0 0 0.423529 0 0 0 0 0.788235 0 0 0 1 0"/>
<feBlend mode="normal" in2="BackgroundImageFix" result="effect1_dropShadow_316_8216"/>
<feBlend mode="normal" in="SourceGraphic" in2="effect1_dropShadow_316_8216" result="shape"/>
</filter>
<filter id="filter3_d_316_8216" x="71.4463" y="259.121" width="388.774" height="378.206" filterUnits="userSpaceOnUse" color-interpolation-filters="sRGB">
<feFlood flood-opacity="0" result="BackgroundImageFix"/>
<feColorMatrix in="SourceAlpha" type="matrix" values="0 0 0 0 0 0 0 0 0 0 0 0 0 0 0 0 0 0 127 0" result="hardAlpha"/>
<feOffset dy="24"/>
<feGaussianBlur stdDeviation="12"/>
<feComposite in2="hardAlpha" operator="out"/>
<feColorMatrix type="matrix" values="0 0 0 0 0.996078 0 0 0 0 0.34902 0 0 0 0 0.733333 0 0 0 1 0"/>
<feBlend mode="normal" in2="BackgroundImageFix" result="effect1_dropShadow_316_8216"/>
<feBlend mode="normal" in="SourceGraphic" in2="effect1_dropShadow_316_8216" result="shape"/>
</filter>
</defs>
</svg>
